<svg width="24" height="24" viewBox="0 0 24 24" fill="none" xmlns="http://www.w3.org/2000/svg">
<path fill-rule="evenodd" clip-rule="evenodd" d="M4 3.79487C4 2.80359 4.80877 2 5.80645 2H18.1935C19.1912 2 20 2.80359 20 3.79487V21.2308C20 21.524 19.8322 21.7917 19.5673 21.9211C19.3025 22.0505 18.9866 22.0189 18.7529 21.8398L12.1576 16.7846C12.0648 16.7135 11.9352 16.7135 11.8424 16.7846L5.24707 21.8398C5.01339 22.0189 4.69754 22.0505 4.43267 21.9211C4.1678 21.7917 4 21.524 4 21.2308V3.79487ZM5.80645 3.53846C5.66393 3.53846 5.54839 3.65326 5.54839 3.79487V19.6658L10.8966 15.5665C11.5467 15.0682 12.4533 15.0682 13.1034 15.5665L18.4516 19.6658V3.79487C18.4516 3.65326 18.3361 3.53846 18.1935 3.53846H5.80645Z" fill="#242424"/>
<path fill-rule="evenodd" clip-rule="evenodd" d="M12 8.95836L10.7031 7.69556C10.4094 7.4095 9.92038 7.4095 9.62661 7.69556C9.35027 7.96464 9.35027 8.3878 9.62661 8.65689L12 10.968L14.3734 8.65689C14.6497 8.3878 14.6497 7.96464 14.3734 7.69556L15.4572 6.59678C16.353 7.46908 16.353 8.88336 15.4572 9.75567L12.7225 12.4185C12.3211 12.8093 11.6789 12.8093 11.2775 12.4185L8.54284 9.75566C7.64701 8.88336 7.64701 7.46908 8.54284 6.59678C9.43866 5.72448 10.8911 5.72448 11.7869 6.59678L12 6.80428L12.2131 6.59678C13.1089 5.72448 14.5613 5.72448 15.4572 6.59678L14.3734 7.69556C14.0796 7.4095 13.5906 7.4095 13.2969 7.69556L12 8.95836Z" fill="#242424"/>
</svg>
