<svg width="18" height="18" viewBox="0 0 18 18" fill="none" xmlns="http://www.w3.org/2000/svg">
<path d="M17.3627 8.93137C17.3627 13.5879 13.5879 17.3627 8.93137 17.3627C4.27485 17.3627 0.5 13.5879 0.5 8.93137C0.5 4.27485 4.27485 0.5 8.93137 0.5C13.5879 0.5 17.3627 4.27485 17.3627 8.93137Z" fill="#CEB4FE"/>
<path d="M8.93168 13.0488C8.88833 13.0481 8.84587 13.036 8.8083 13.0137C8.7615 12.9918 7.70637 12.3743 6.63423 11.3846C5.16642 10.0225 4.42188 8.66928 4.42188 7.35544C4.42149 6.81185 4.59052 6.28247 4.90413 5.84511C5.21774 5.40776 5.65937 5.0855 6.16412 4.9257C6.66887 4.76591 7.2101 4.77701 7.70827 4.95738C8.20643 5.13774 8.63525 5.47785 8.93168 5.92772C9.22811 5.47785 9.65692 5.13774 10.1551 4.95738C10.6533 4.77701 11.1945 4.76591 11.6992 4.9257C12.204 5.0855 12.6456 5.40776 12.9592 5.84511C13.2728 6.28247 13.4419 6.81185 13.4415 7.35544C13.4415 8.66928 12.6969 10.0225 11.2291 11.3846C10.157 12.3743 9.10186 12.9918 9.05506 13.0137C9.01749 13.036 8.97503 13.0481 8.93168 13.0488Z" fill="#C8FF00"/>
<path d="M17.3627 8.93137C17.3627 13.5879 13.5879 17.3627 8.93137 17.3627C4.27485 17.3627 0.5 13.5879 0.5 8.93137C0.5 4.27485 4.27485 0.5 8.93137 0.5C13.5879 0.5 17.3627 4.27485 17.3627 8.93137Z" stroke="#242424" stroke-linejoin="round"/>
<path d="M8.93168 13.0488C8.88833 13.0481 8.84587 13.036 8.8083 13.0137C8.7615 12.9918 7.70637 12.3743 6.63423 11.3846C5.16642 10.0225 4.42188 8.66928 4.42188 7.35544C4.42149 6.81185 4.59052 6.28247 4.90413 5.84511C5.21774 5.40776 5.65937 5.0855 6.16412 4.9257C6.66887 4.76591 7.2101 4.77701 7.70827 4.95738C8.20643 5.13774 8.63525 5.47785 8.93168 5.92772C9.22811 5.47785 9.65692 5.13774 10.1551 4.95738C10.6533 4.77701 11.1945 4.76591 11.6992 4.9257C12.204 5.0855 12.6456 5.40776 12.9592 5.84511C13.2728 6.28247 13.4419 6.81185 13.4415 7.35544C13.4415 8.66928 12.6969 10.0225 11.2291 11.3846C10.157 12.3743 9.10186 12.9918 9.05506 13.0137C9.01749 13.036 8.97503 13.0481 8.93168 13.0488Z" stroke="#242424" stroke-linejoin="round"/>
</svg>
