<svg width="19" height="19" viewBox="0 0 19 19" fill="none" xmlns="http://www.w3.org/2000/svg">
<path fill-rule="evenodd" clip-rule="evenodd" d="M16.0203 1.51185H2.1219C1.78498 1.51185 1.51185 1.78498 1.51185 2.1219V16.0203C1.51185 16.3573 1.78498 16.6304 2.1219 16.6304H16.0203C16.3573 16.6304 16.6304 16.3573 16.6304 16.0203V2.1219C16.6304 1.78498 16.3573 1.51185 16.0203 1.51185ZM2.1219 0C0.950006 0 0 0.950009 0 2.1219V16.0203C0 17.1922 0.950009 18.1422 2.1219 18.1422H16.0203C17.1922 18.1422 18.1422 17.1922 18.1422 16.0203V2.1219C18.1422 0.950006 17.1922 0 16.0203 0H2.1219Z" fill="#242424"/>
<path fill-rule="evenodd" clip-rule="evenodd" d="M9.16585 0.346712C9.58334 0.346712 9.92178 0.685152 9.92178 1.10264V17.2291C9.92178 17.6466 9.58334 17.985 9.16585 17.985C8.74837 17.985 8.40993 17.6466 8.40993 17.2291V1.10264C8.40993 0.685152 8.74837 0.346712 9.16585 0.346712Z" fill="#242424"/>
<path fill-rule="evenodd" clip-rule="evenodd" d="M0.346712 6.14215C0.346712 5.72466 0.685152 5.38622 1.10264 5.38622L9.16585 5.38622C9.58334 5.38622 9.92178 5.72466 9.92178 6.14215C9.92178 6.55963 9.58334 6.89807 9.16585 6.89807L1.10264 6.89807C0.685152 6.89807 0.346712 6.55963 0.346712 6.14215Z" fill="#242424"/>
<path fill-rule="evenodd" clip-rule="evenodd" d="M8.40993 12.1896C8.40993 11.7721 8.74837 11.4336 9.16585 11.4336H17.2291C17.6466 11.4336 17.985 11.7721 17.985 12.1896C17.985 12.607 17.6466 12.9455 17.2291 12.9455H9.16585C8.74837 12.9455 8.40993 12.607 8.40993 12.1896Z" fill="#242424"/>
</svg>
