<svg width="269" height="42" viewBox="0 0 269 42" fill="none" xmlns="http://www.w3.org/2000/svg">
<path d="M82.6596 41.9963H74.32C72.6579 41.9963 71.2677 40.7395 71.1024 39.0882L69.8572 26.6484C69.8113 26.1915 69.4275 25.8447 68.9684 25.8447C68.5093 25.8447 68.1254 26.1915 68.0795 26.6484L66.8344 39.0882C66.6691 40.7395 65.2788 41.9963 63.6168 41.9963H55.2258C53.4407 41.9963 51.9917 40.5505 51.9917 38.7653V3.23105C51.9917 1.44764 53.4389 0 55.2258 0H63.5892C65.2311 0 66.6121 1.2293 66.8013 2.85675L68.0777 15.3498C68.1236 15.8048 68.5074 16.1516 68.9665 16.1516C69.4257 16.1516 69.8113 15.803 69.8554 15.3461L71.073 2.87327C71.2548 1.23664 72.6396 0 74.2869 0H82.6596C84.4446 0 85.8936 1.44581 85.8936 3.23105V38.7653C85.8936 40.5487 84.4465 41.9963 82.6596 41.9963Z" fill="#C8FF00"/>
<path d="M114.892 41.9963H97.2618C92.7973 41.9963 89.1775 38.3799 89.1775 33.9196V8.07671C89.1775 3.61635 92.7973 0 97.2618 0H114.892C118.549 0 121.513 2.96134 121.513 6.61439C121.513 9.97754 118.986 12.8068 115.64 13.1866L104.487 14.4526C104.055 14.5021 103.728 14.8672 103.728 15.3002C103.728 15.7718 104.11 16.1534 104.582 16.1534H111.408C114.088 16.1534 116.259 18.3221 116.259 20.9991C116.259 23.676 114.088 25.8447 111.408 25.8447H103.728V27.4593L115.64 28.8116C118.986 29.1914 121.513 32.0188 121.513 35.3837C121.513 39.0368 118.549 41.9981 114.892 41.9981V41.9963Z" fill="#C8FF00"/>
<path d="M176.48 0H171.632C169.845 0 168.397 1.44659 168.397 3.23105V38.7653C168.397 40.5497 169.845 41.9963 171.632 41.9963H176.48C178.266 41.9963 179.714 40.5497 179.714 38.7653V3.23105C179.714 1.44659 178.266 0 176.48 0Z" fill="#C8FF00"/>
<path d="M33.1495 23.3164L30.5251 3.65852C30.2662 1.72283 31.774 0.00180054 33.7299 0.00180054H45.5221C47.5533 0.00180054 49.0812 1.84943 48.6974 3.842L42.6663 35.1764C41.9042 39.1358 38.4368 41.9981 34.4002 41.9981C30.0844 41.9981 26.4683 38.7359 26.0275 34.448L25.2085 26.4667C25.1093 25.4979 23.6988 25.4961 23.596 26.4648L22.7494 34.4737C22.2976 38.7524 18.6852 41.9999 14.3786 41.9999H14.3565C10.3199 41.9999 6.85255 39.1377 6.0904 35.1782L0.0593061 3.84383C-0.324524 1.85126 1.20345 0.00363711 3.23463 0.00363711H15.0269C16.9827 0.00363711 18.4905 1.72466 18.2316 3.66035L15.6072 23.3182C15.5429 23.8007 15.9194 24.2301 16.4061 24.2301H16.441C16.8248 24.2301 17.1572 23.9585 17.2325 23.5824L19.5428 12.038C20.0038 9.73531 22.0276 8.07851 24.3765 8.07851C26.7272 8.07851 28.7492 9.73531 29.2102 12.038L31.5205 23.5824C31.5958 23.9585 31.9264 24.2301 32.3121 24.2301H32.347C32.8355 24.2301 33.2101 23.8007 33.1458 23.3182L33.1495 23.3164Z" fill="#C8FF00"/>
<path d="M197.892 29.7712L195.958 12.005C195.914 11.6087 195.58 11.3078 195.179 11.3078C194.748 11.3078 194.399 11.6564 194.397 12.0857L194.278 38.7799C194.27 40.5597 192.825 41.9963 191.044 41.9963H186.182C184.395 41.9963 182.948 40.5487 182.948 38.7634L182.967 3.22922C182.967 1.44581 184.416 0 186.201 0H200.38C206.024 0 210.691 4.39613 211.021 10.0252L212.002 26.6979C212.028 27.1456 212.406 27.4924 212.856 27.4813C213.308 27.4685 213.666 27.0997 213.666 26.6502V3.23105C213.666 1.44764 215.113 0 216.9 0H221.77C223.555 0 225.004 1.44581 225.004 3.23105V28.4189C225.004 35.9177 218.92 41.9963 211.414 41.9963C204.432 41.9963 198.586 36.7103 197.892 29.7693V29.7712Z" fill="#C8FF00"/>
<path d="M268.586 22.6137V29.0739C268.586 36.2112 262.795 41.9963 255.651 41.9963H241.15C234.006 41.9963 228.216 36.2112 228.216 29.0739V8.07671C228.216 3.61635 231.836 0 236.3 0H259.029C264.307 0 268.586 4.27504 268.586 9.5482V14.537C268.586 15.4287 267.862 16.1516 266.97 16.1516H255.703C254.81 16.1516 254.087 15.4287 254.087 14.537V12.0894C254.087 11.6435 253.723 11.2802 253.277 11.2821L242.789 11.3022C241.007 11.3041 239.564 12.7462 239.56 14.526L239.542 24.2246C239.54 26.0099 240.987 27.4593 242.776 27.4593H251.584C252.074 27.4593 252.472 27.0612 252.472 26.5713C252.472 26.1475 252.173 25.7842 251.758 25.7016L246.531 24.6576C245.286 24.4081 244.388 23.3164 244.388 22.0467C244.388 20.5752 245.582 19.3845 247.053 19.3845H265.356C267.141 19.3845 268.59 20.8303 268.59 22.6155L268.586 22.6137Z" fill="#C8FF00"/>
<path d="M162.443 30.4023L150.873 23.7017C150.357 23.4026 150.57 22.6137 151.165 22.6137H153.872C160.107 22.6137 165.163 17.5625 165.163 11.3335C165.163 5.11171 160.12 0.0642276 153.892 0.0532189L132.842 0.0146901C128.372 0.00735098 124.743 3.62554 124.743 8.09139V38.7653C124.743 40.5487 126.191 41.9963 127.977 41.9963H134.444C136.229 41.9963 137.678 40.5505 137.678 38.7653V23.5513C137.678 23.032 138.098 22.6119 138.618 22.6119C139.022 22.6119 139.382 22.8706 139.509 23.254L145.024 39.7854C145.465 41.1046 146.699 41.9945 148.091 41.9945H158.781C162.304 41.9945 165.161 39.1414 165.161 35.6223C165.161 33.5435 164.146 31.5931 162.44 30.4005L162.443 30.4023ZM148.996 11.3078C148.996 12.1995 148.273 12.9224 147.38 12.9224H139.296C138.403 12.9224 137.68 12.1995 137.68 11.3078C137.68 10.4161 138.403 9.69316 139.296 9.69316H147.38C148.273 9.69316 148.996 10.4161 148.996 11.3078Z" fill="#C8FF00"/>
</svg>
