<svg width="211" height="182" viewBox="0 0 211 182" fill="none" xmlns="http://www.w3.org/2000/svg">
<path d="M143.458 101.034L132.101 15.8465C130.98 7.45811 137.505 0 145.97 0H197.002C205.792 0 212.404 8.00673 210.743 16.6416L184.643 152.43C181.345 169.588 166.34 181.992 148.871 181.992C130.193 181.992 114.544 167.855 112.637 149.273L109.092 114.686C108.663 110.488 102.559 110.48 102.114 114.678L98.4504 149.385C96.4953 167.927 80.8622 182 62.2248 182H62.1295C44.6604 182 29.6552 169.596 26.3569 152.438L0.256654 16.6495C-1.40441 8.01468 5.20807 0.00795883 13.9982 0.00795883H65.0304C73.4947 0.00795883 80.0197 7.46606 78.8991 15.8544L67.5418 101.042C67.2637 103.133 68.8929 104.994 70.9991 104.994H71.1501C72.8111 104.994 74.2497 103.817 74.5755 102.187L84.5737 52.159C86.5686 42.1804 95.327 35.0006 105.492 35.0006C115.665 35.0006 124.415 42.1804 126.41 52.159L136.409 102.187C136.734 103.817 138.165 104.994 139.834 104.994H139.985C142.099 104.994 143.72 103.133 143.442 101.042L143.458 101.034Z" fill="#C8FF00"/>
</svg>
