<svg width="24" height="24" viewBox="0 0 24 24" fill="none" xmlns="http://www.w3.org/2000/svg">
<path fill-rule="evenodd" clip-rule="evenodd" d="M14.268 3.93693C14.268 2.9628 15.0576 2.1731 16.0318 2.1731H19.0555C20.0296 2.1731 20.8193 2.9628 20.8193 3.93693V20.0634C20.8193 21.0375 20.0296 21.8272 19.0555 21.8272L4.94486 21.8272C3.97073 21.8272 3.18103 21.0375 3.18103 20.0634V8.97644C3.18103 8.00231 3.97072 7.21261 4.94486 7.21261H7.96856C8.9427 7.21261 9.73239 8.0023 9.73239 8.97644V12.27C9.81469 12.2582 9.89882 12.2521 9.98437 12.2521H14.016C14.1015 12.2521 14.1857 12.2582 14.268 12.27V3.93693ZM15.7798 20.3153L19.0555 20.3153C19.1946 20.3153 19.3075 20.2025 19.3075 20.0634V3.93693C19.3075 3.79777 19.1946 3.68496 19.0555 3.68496H16.0318C15.8926 3.68496 15.7798 3.79777 15.7798 3.93693V20.3153ZM14.268 20.3153V14.0159C14.268 13.8768 14.1551 13.764 14.016 13.764H9.98437C9.8452 13.764 9.73239 13.8768 9.73239 14.0159L9.73239 20.3153H14.268ZM8.22054 20.3153V8.97644C8.22054 8.83728 8.10773 8.72446 7.96856 8.72446H4.94486C4.8057 8.72446 4.69288 8.83728 4.69288 8.97644V20.0634C4.69288 20.2025 4.80569 20.3153 4.94486 20.3153H8.22054Z" fill="#242424"/>
</svg>
